<?xml version="1.0" encoding="UTF-8"?>
      <mxfile host="codeviz.app" modified="2025-03-14T07:58:19.363Z" agent="CodeViz Exporter" version="14.6.5" type="device">
        <diagram id="codeviz-diagram" name="System Diagram">
          <mxGraphModel dx="1000" dy="1000" grid="1" gridSize="10" guides="1" tooltips="1" connect="1" arrows="1" fold="1" page="1" pageScale="1" pageWidth="1169" pageHeight="827" math="0" shadow="0">
            <root>
              <mxCell id="0"/>
              <mxCell id="1" parent="0"/>
              <mxCell id="subGraph4" value="" style="html=1;whiteSpace=wrap;container=1;fillColor=#dae8fc;strokeColor=#6c8ebf;dashed=1;fillOpacity=20;strokeWidth=2;containerType=none;recursiveResize=0;movable=1;resizable=1;autosize=0;dropTarget=0" vertex="1" parent="1">
                <mxGeometry x="127.5" y="1472" width="380" height="220" as="geometry"/>
              </mxCell>
              <mxCell id="subGraph4_label" value="External Services" style="edgeLabel;html=1;align=center;verticalAlign=middle;resizable=0;labelBackgroundColor=white;spacing=5" vertex="1" parent="1">
                <mxGeometry x="135.5" y="1480" width="304" height="24" as="geometry"/>
              </mxCell>
<mxCell id="subGraph3" value="" style="html=1;whiteSpace=wrap;container=1;fillColor=#dae8fc;strokeColor=#6c8ebf;dashed=1;fillOpacity=20;strokeWidth=2;containerType=none;recursiveResize=0;movable=1;resizable=1;autosize=0;dropTarget=0" vertex="1" parent="1">
                <mxGeometry x="253" y="1232" width="380" height="220" as="geometry"/>
              </mxCell>
              <mxCell id="subGraph3_label" value="API Routes" style="edgeLabel;html=1;align=center;verticalAlign=middle;resizable=0;labelBackgroundColor=white;spacing=5" vertex="1" parent="1">
                <mxGeometry x="261" y="1240" width="304" height="24" as="geometry"/>
              </mxCell>
<mxCell id="Services" value="" style="html=1;whiteSpace=wrap;container=1;fillColor=#dae8fc;strokeColor=#6c8ebf;dashed=1;fillOpacity=20;strokeWidth=2;containerType=none;recursiveResize=0;movable=1;resizable=1;autosize=0;dropTarget=0" vertex="1" parent="1">
                <mxGeometry x="22" y="912" width="380" height="300" as="geometry"/>
              </mxCell>
              <mxCell id="Services_label" value="Services" style="edgeLabel;html=1;align=center;verticalAlign=middle;resizable=0;labelBackgroundColor=white;spacing=5" vertex="1" parent="1">
                <mxGeometry x="30" y="920" width="304" height="24" as="geometry"/>
              </mxCell>
<mxCell id="subGraph1" value="" style="html=1;whiteSpace=wrap;container=1;fillColor=#dae8fc;strokeColor=#6c8ebf;dashed=1;fillOpacity=20;strokeWidth=2;containerType=none;recursiveResize=0;movable=1;resizable=1;autosize=0;dropTarget=0" vertex="1" parent="1">
                <mxGeometry x="293" y="592" width="310" height="300" as="geometry"/>
              </mxCell>
              <mxCell id="subGraph1_label" value="State Management" style="edgeLabel;html=1;align=center;verticalAlign=middle;resizable=0;labelBackgroundColor=white;spacing=5" vertex="1" parent="1">
                <mxGeometry x="301" y="600" width="234" height="24" as="geometry"/>
              </mxCell>
<mxCell id="subGraph0" value="" style="html=1;whiteSpace=wrap;container=1;fillColor=#dae8fc;strokeColor=#6c8ebf;dashed=1;fillOpacity=20;strokeWidth=2;containerType=none;recursiveResize=0;movable=1;resizable=1;autosize=0;dropTarget=0" vertex="1" parent="1">
                <mxGeometry x="217.5" y="22" width="401" height="550" as="geometry"/>
              </mxCell>
              <mxCell id="subGraph0_label" value="Frontend Components" style="edgeLabel;html=1;align=center;verticalAlign=middle;resizable=0;labelBackgroundColor=white;spacing=5" vertex="1" parent="1">
                <mxGeometry x="225.5" y="30" width="325" height="24" as="geometry"/>
              </mxCell>
              <mxCell id="Chat" value="Chat.svelte" style="rounded=1;whiteSpace=wrap;html=1;fillColor=#f5f5f5" vertex="1" parent="subGraph0">
                    <mxGeometry x="90" y="120" width="120" height="60" as="geometry"/>
                  </mxCell>
<mxCell id="ChatInput" value="ChatInput.svelte" style="rounded=1;whiteSpace=wrap;html=1;fillColor=#f5f5f5" vertex="1" parent="subGraph0">
                    <mxGeometry x="201" y="210" width="120" height="60" as="geometry"/>
                  </mxCell>
<mxCell id="NewAnalysisModal" value="NewAnalysisModal/index.svelte" style="rounded=1;whiteSpace=wrap;html=1;fillColor=#f5f5f5" vertex="1" parent="subGraph0">
                    <mxGeometry x="60" y="210" width="120" height="60" as="geometry"/>
                  </mxCell>
<mxCell id="Screen1" value="Screen1Input.svelte" style="rounded=1;whiteSpace=wrap;html=1;fillColor=#f5f5f5" vertex="1" parent="subGraph0">
                    <mxGeometry x="40" y="290" width="120" height="60" as="geometry"/>
                  </mxCell>
<mxCell id="Screen2" value="Screen2Checklist.svelte" style="rounded=1;whiteSpace=wrap;html=1;fillColor=#f5f5f5" vertex="1" parent="subGraph0">
                    <mxGeometry x="40" y="370" width="120" height="60" as="geometry"/>
                  </mxCell>
<mxCell id="Screen3" value="Screen3Progress.svelte" style="rounded=1;whiteSpace=wrap;html=1;fillColor=#f5f5f5" vertex="1" parent="subGraph0">
                    <mxGeometry x="40" y="450" width="120" height="60" as="geometry"/>
                  </mxCell>
<mxCell id="ChatState" value="Chat.svelte.ts" style="rounded=1;whiteSpace=wrap;html=1;fillColor=#f5f5f5" vertex="1" parent="subGraph1">
                    <mxGeometry x="110" y="120" width="120" height="60" as="geometry"/>
                  </mxCell>
<mxCell id="AppState" value="appState.svelte.ts" style="rounded=1;whiteSpace=wrap;html=1;fillColor=#f5f5f5" vertex="1" parent="subGraph1">
                    <mxGeometry x="40" y="200" width="120" height="60" as="geometry"/>
                  </mxCell>
<mxCell id="AIService" value="aiService.ts" style="rounded=1;whiteSpace=wrap;html=1;fillColor=#f5f5f5" vertex="1" parent="Services">
                    <mxGeometry x="180" y="120" width="120" height="60" as="geometry"/>
                  </mxCell>
<mxCell id="AnalysisService" value="analysisService.ts" style="rounded=1;whiteSpace=wrap;html=1;fillColor=#f5f5f5" vertex="1" parent="Services">
                    <mxGeometry x="40" y="120" width="120" height="60" as="geometry"/>
                  </mxCell>
<mxCell id="EmbeddingService" value="embeddingService.ts" style="rounded=1;whiteSpace=wrap;html=1;fillColor=#f5f5f5" vertex="1" parent="Services">
                    <mxGeometry x="160" y="200" width="120" height="60" as="geometry"/>
                  </mxCell>
<mxCell id="AIEndpoint" value="/api/ai/+server.ts" style="rounded=1;whiteSpace=wrap;html=1;fillColor=#f5f5f5" vertex="1" parent="subGraph3">
                    <mxGeometry x="40" y="120" width="120" height="60" as="geometry"/>
                  </mxCell>
<mxCell id="ChatEndpoint" value="/api/chat/+server.ts" style="rounded=1;whiteSpace=wrap;html=1;fillColor=#f5f5f5" vertex="1" parent="subGraph3">
                    <mxGeometry x="180" y="120" width="120" height="60" as="geometry"/>
                  </mxCell>
<mxCell id="OpenAI" value="OpenAI API" style="rounded=1;whiteSpace=wrap;html=1;fillColor=#f5f5f5" vertex="1" parent="subGraph4">
                    <mxGeometry x="180" y="120" width="120" height="60" as="geometry"/>
                  </mxCell>
<mxCell id="Supabase" value="Supabase" style="rounded=1;whiteSpace=wrap;html=1;fillColor=#f5f5f5" vertex="1" parent="subGraph4">
                    <mxGeometry x="40" y="120" width="120" height="60" as="geometry"/>
                  </mxCell>
              <mxCell id="edge-L_Chat_ChatInput_0" style="edgeStyle=orthogonalEdgeStyle;rounded=1;orthogonalLoop=1;jettySize=auto;html=1;strokeColor=#808080;strokeWidth=2;jumpStyle=arc;jumpSize=10;spacing=15;labelBackgroundColor=white;labelBorderColor=none" edge="1" parent="1" source="Chat" target="ChatInput">
                  <mxGeometry relative="1" as="geometry"/>
                </mxCell>
<mxCell id="edge-L_Chat_NewAnalysisModal_1" style="edgeStyle=orthogonalEdgeStyle;rounded=1;orthogonalLoop=1;jettySize=auto;html=1;strokeColor=#808080;strokeWidth=2;jumpStyle=arc;jumpSize=10;spacing=15;labelBackgroundColor=white;labelBorderColor=none" edge="1" parent="1" source="Chat" target="NewAnalysisModal">
                  <mxGeometry relative="1" as="geometry"/>
                </mxCell>
<mxCell id="edge-L_NewAnalysisModal_Screen1_2" style="edgeStyle=orthogonalEdgeStyle;rounded=1;orthogonalLoop=1;jettySize=auto;html=1;strokeColor=#808080;strokeWidth=2;jumpStyle=arc;jumpSize=10;spacing=15;labelBackgroundColor=white;labelBorderColor=none" edge="1" parent="1" source="NewAnalysisModal" target="Screen1">
                  <mxGeometry relative="1" as="geometry"/>
                </mxCell>
<mxCell id="edge-L_Screen1_Screen2_3" style="edgeStyle=orthogonalEdgeStyle;rounded=1;orthogonalLoop=1;jettySize=auto;html=1;strokeColor=#808080;strokeWidth=2;jumpStyle=arc;jumpSize=10;spacing=15;labelBackgroundColor=white;labelBorderColor=none" edge="1" parent="1" source="Screen1" target="Screen2">
                  <mxGeometry relative="1" as="geometry"/>
                </mxCell>
<mxCell id="edge-L_Screen2_Screen3_4" style="edgeStyle=orthogonalEdgeStyle;rounded=1;orthogonalLoop=1;jettySize=auto;html=1;strokeColor=#808080;strokeWidth=2;jumpStyle=arc;jumpSize=10;spacing=15;labelBackgroundColor=white;labelBorderColor=none" edge="1" parent="1" source="Screen2" target="Screen3">
                  <mxGeometry relative="1" as="geometry"/>
                </mxCell>
<mxCell id="edge-L_Chat_ChatState_5" style="edgeStyle=orthogonalEdgeStyle;rounded=1;orthogonalLoop=1;jettySize=auto;html=1;strokeColor=#808080;strokeWidth=2;jumpStyle=arc;jumpSize=10;spacing=15;labelBackgroundColor=white;labelBorderColor=none" edge="1" parent="1" source="Chat" target="ChatState">
                  <mxGeometry relative="1" as="geometry"/>
                </mxCell>
<mxCell id="edge-L_NewAnalysisModal_AppState_6" style="edgeStyle=orthogonalEdgeStyle;rounded=1;orthogonalLoop=1;jettySize=auto;html=1;strokeColor=#808080;strokeWidth=2;jumpStyle=arc;jumpSize=10;spacing=15;labelBackgroundColor=white;labelBorderColor=none" edge="1" parent="1" source="NewAnalysisModal" target="AppState">
                  <mxGeometry relative="1" as="geometry"/>
                </mxCell>
<mxCell id="edge-L_ChatState_AppState_7" style="edgeStyle=orthogonalEdgeStyle;rounded=1;orthogonalLoop=1;jettySize=auto;html=1;strokeColor=#808080;strokeWidth=2;jumpStyle=arc;jumpSize=10;spacing=15;labelBackgroundColor=white;labelBorderColor=none" edge="1" parent="1" source="ChatState" target="AppState">
                  <mxGeometry relative="1" as="geometry"/>
                </mxCell>
<mxCell id="edge-L_ChatState_AIService_8" style="edgeStyle=orthogonalEdgeStyle;rounded=1;orthogonalLoop=1;jettySize=auto;html=1;strokeColor=#808080;strokeWidth=2;jumpStyle=arc;jumpSize=10;spacing=15;labelBackgroundColor=white;labelBorderColor=none" edge="1" parent="1" source="ChatState" target="AIService">
                  <mxGeometry relative="1" as="geometry"/>
                </mxCell>
<mxCell id="edge-L_Screen3_AnalysisService_9" style="edgeStyle=orthogonalEdgeStyle;rounded=1;orthogonalLoop=1;jettySize=auto;html=1;strokeColor=#808080;strokeWidth=2;jumpStyle=arc;jumpSize=10;spacing=15;labelBackgroundColor=white;labelBorderColor=none" edge="1" parent="1" source="Screen3" target="AnalysisService">
                  <mxGeometry relative="1" as="geometry"/>
                </mxCell>
<mxCell id="edge-L_AIService_EmbeddingService_10" style="edgeStyle=orthogonalEdgeStyle;rounded=1;orthogonalLoop=1;jettySize=auto;html=1;strokeColor=#808080;strokeWidth=2;jumpStyle=arc;jumpSize=10;spacing=15;labelBackgroundColor=white;labelBorderColor=none" edge="1" parent="1" source="AIService" target="EmbeddingService">
                  <mxGeometry relative="1" as="geometry"/>
                </mxCell>
<mxCell id="edge-L_AIService_AIEndpoint_11" style="edgeStyle=orthogonalEdgeStyle;rounded=1;orthogonalLoop=1;jettySize=auto;html=1;strokeColor=#808080;strokeWidth=2;jumpStyle=arc;jumpSize=10;spacing=15;labelBackgroundColor=white;labelBorderColor=none" edge="1" parent="1" source="AIService" target="AIEndpoint">
                  <mxGeometry relative="1" as="geometry"/>
                </mxCell>
<mxCell id="edge-L_ChatState_ChatEndpoint_12" style="edgeStyle=orthogonalEdgeStyle;rounded=1;orthogonalLoop=1;jettySize=auto;html=1;strokeColor=#808080;strokeWidth=2;jumpStyle=arc;jumpSize=10;spacing=15;labelBackgroundColor=white;labelBorderColor=none" edge="1" parent="1" source="ChatState" target="ChatEndpoint">
                  <mxGeometry relative="1" as="geometry"/>
                </mxCell>
<mxCell id="edge-L_AIEndpoint_OpenAI_13" style="edgeStyle=orthogonalEdgeStyle;rounded=1;orthogonalLoop=1;jettySize=auto;html=1;strokeColor=#808080;strokeWidth=2;jumpStyle=arc;jumpSize=10;spacing=15;labelBackgroundColor=white;labelBorderColor=none" edge="1" parent="1" source="AIEndpoint" target="OpenAI">
                  <mxGeometry relative="1" as="geometry"/>
                </mxCell>
<mxCell id="edge-L_EmbeddingService_Supabase_14" style="edgeStyle=orthogonalEdgeStyle;rounded=1;orthogonalLoop=1;jettySize=auto;html=1;strokeColor=#808080;strokeWidth=2;jumpStyle=arc;jumpSize=10;spacing=15;labelBackgroundColor=white;labelBorderColor=none" edge="1" parent="1" source="EmbeddingService" target="Supabase">
                  <mxGeometry relative="1" as="geometry"/>
                </mxCell>
            </root>
          </mxGraphModel>
        </diagram>
      </mxfile>